<?xml version="1.0"?>
<svg xmlns="http://www.w3.org/2000/svg" viewBox="0 0 64 64" width="512" height="512"><g id="Outline"><g><path d="M20.924,7.617A1,1,0,0,0,20,7H8A1,1,0,0,0,7,8V20a1,1,0,0,0,2,0V9h8.586l-2.172,2.172a1,1,0,0,0,0,1.414l5.172,5.171-2.829,2.829-5.171-5.172a1,1,0,0,0-1.414,1.414l5.878,5.879a1,1,0,0,0,1.414,0l4.243-4.243a1,1,0,0,0,0-1.414l-5.172-5.171,3.172-3.172A1,1,0,0,0,20.924,7.617Z"/><path d="M41.293,18.464l4.242,4.243a1,1,0,0,0,1.414,0l5.172-5.172,3.172,3.172A1,1,0,0,0,57,20V8a1,1,0,0,0-1-1H44a1,1,0,0,0-.707,1.707l3.172,3.172L41.293,17.05A1,1,0,0,0,41.293,18.464Zm7.293-5.878a1,1,0,0,0,0-1.414L46.414,9H55v8.586l-2.172-2.172a1,1,0,0,0-1.414,0l-5.172,5.172-2.828-2.829Z"/><path d="M7,44a1,1,0,0,0,1,1H20a1,1,0,0,0,.707-1.707l-3.172-3.172,5.172-5.171a1,1,0,0,0,0-1.414l-4.243-4.243a1.029,1.029,0,0,0-1.414,0l-5.171,5.172L8.707,31.293A1,1,0,0,0,7,32Zm2-9.586,2.172,2.172a1.029,1.029,0,0,0,1.414,0l5.171-5.172,2.829,2.829-5.172,5.171a1,1,0,0,0,0,1.414L17.586,43H9Z"/><path d="M41.293,34.95l5.172,5.171-3.172,3.172A1,1,0,0,0,44,45H56a1,1,0,0,0,1-1V32a1,1,0,0,0-2,0V43H46.414l2.172-2.172a1,1,0,0,0,0-1.414l-5.172-5.171,2.828-2.829,5.172,5.172a1,1,0,0,0,1.414-1.414l-5.879-5.879a1.029,1.029,0,0,0-1.414,0l-4.242,4.243A1,1,0,0,0,41.293,34.95Z"/><path d="M61,38a1,1,0,0,0-1,1v6a3,3,0,0,1-3,3H7a3,3,0,0,1-3-3V15a1,1,0,0,0-2,0V45a5.006,5.006,0,0,0,5,5H19.382l-2,4H14a5.006,5.006,0,0,0-5,5v2a1,1,0,0,0,1,1H40a1,1,0,0,0,0-2H11V59a3,3,0,0,1,3-3H50a3,3,0,0,1,3,3v1H44a1,1,0,0,0,0,2H54a1,1,0,0,0,1-1V59a5.006,5.006,0,0,0-5-5H46.618l-2-4H57a5.006,5.006,0,0,0,5-5V39A1,1,0,0,0,61,38ZM44.382,54H19.618l2-4H42.382Z"/><path d="M57,2H7A5.006,5.006,0,0,0,2,7v4a1,1,0,0,0,2,0V7A3,3,0,0,1,7,4H57a3,3,0,0,1,3,3V35a1,1,0,0,0,2,0V7A5.006,5.006,0,0,0,57,2Z"/></g></g></svg>
